<?xml version="1.0" encoding="UTF-8" standalone="no"?><!DOCTYPE svg PUBLIC "-//W3C//DTD SVG 1.1//EN" "http://www.w3.org/Graphics/SVG/1.1/DTD/svg11.dtd"><svg width="100%" height="100%" viewBox="0 0 246 246" version="1.1" xmlns="http://www.w3.org/2000/svg" xmlns:xlink="http://www.w3.org/1999/xlink" xml:space="preserve" xmlns:serif="http://www.serif.com/" style="fill-rule:evenodd;clip-rule:evenodd;stroke-linecap:round;stroke-linejoin:round;stroke-miterlimit:1.5;"><circle cx="122.88" cy="122.88" r="122.88" style="fill:url(#_Linear1);"/><path d="M245.76,45.618l0,154.524c0,25.177 -20.441,45.618 -45.618,45.618l-154.524,0c-25.177,0 -45.618,-20.441 -45.618,-45.618l0,-154.524c0,-25.177 20.441,-45.618 45.618,-45.618l154.524,0c25.177,0 45.618,20.441 45.618,45.618Z" style="fill:url(#_Linear2);"/><g><circle cx="74.627" cy="53.803" r="21.831"/><circle cx="171.364" cy="53.803" r="21.831"/><circle cx="74.627" cy="191.957" r="21.831"/><circle cx="122.89" cy="122.88" r="21.831"/><path d="M171.364,53.803l-96.737,138.154" style="fill:none;stroke:#000;stroke-width:20px;"/><path d="M122.996,123.181l-48.579,-69.378" style="fill:none;stroke:#000;stroke-width:20px;"/></g><defs><linearGradient id="_Linear1" x1="0" y1="0" x2="1" y2="0" gradientUnits="userSpaceOnUse" gradientTransform="matrix(199.025,151.88,-151.88,199.025,23.8709,46.94)"><stop offset="0" style="stop-color:#a87dcb;stop-opacity:1"/><stop offset="0.57" style="stop-color:#6badc1;stop-opacity:1"/><stop offset="1" style="stop-color:#4fc3bd;stop-opacity:1"/></linearGradient><linearGradient id="_Linear2" x1="0" y1="0" x2="1" y2="0" gradientUnits="userSpaceOnUse" gradientTransform="matrix(199.025,151.88,-151.88,199.025,23.8709,46.94)"><stop offset="0" style="stop-color:#a87dcb;stop-opacity:1"/><stop offset="0.57" style="stop-color:#6badc1;stop-opacity:1"/><stop offset="1" style="stop-color:#4fc3bd;stop-opacity:1"/></linearGradient></defs></svg>