<?xml version="1.0" encoding="UTF-8" standalone="no"?><!DOCTYPE svg PUBLIC "-//W3C//DTD SVG 1.1//EN" "http://www.w3.org/Graphics/SVG/1.1/DTD/svg11.dtd"><svg width="100%" height="100%" viewBox="0 0 240 120" version="1.1" xmlns="http://www.w3.org/2000/svg" xmlns:xlink="http://www.w3.org/1999/xlink" xml:space="preserve" xmlns:serif="http://www.serif.com/" style="fill-rule:evenodd;clip-rule:evenodd;stroke-linecap:round;stroke-linejoin:round;stroke-miterlimit:1.5;"><path d="M23.953,75.305c-2.743,-0 -4.841,-0.888 -6.293,-2.663c-1.452,-1.774 -2.178,-4.114 -2.178,-7.018l-0,-24.606l-5.244,-0l0,-6.051l5.244,0l-0,-9.681l6.857,0l0,9.681l9.359,0l-0,6.051l-9.359,-0l0,25.009c0,1.183 0.296,2.017 0.888,2.501c0.591,0.484 1.506,0.726 2.743,0.726l5.728,0l-0,6.051l-7.745,-0Z" style="fill:#a0a0a0;fill-rule:nonzero;"/><path d="M61.467,65.22c-0,3.389 -1.036,5.916 -3.106,7.584c-2.071,1.667 -5.069,2.501 -8.996,2.501l-10.407,-0l0,-6.051l11.214,0c1.452,0 2.555,-0.309 3.308,-0.928c0.753,-0.618 1.129,-1.519 1.129,-2.702l0,-4.276c0,-2.42 -1.156,-3.63 -3.469,-3.63l-1.371,-0c-3.765,-0 -6.575,-0.821 -8.431,-2.461c-1.855,-1.64 -2.783,-4.236 -2.783,-7.785l-0,-2.34c-0,-3.603 1.022,-6.198 3.066,-7.785c2.043,-1.587 5.055,-2.38 9.035,-2.38l9.197,0l0,6.051l-10.004,-0c-1.344,-0 -2.42,0.309 -3.227,0.928c-0.806,0.618 -1.21,1.519 -1.21,2.702l0,2.904c0,1.237 0.363,2.152 1.089,2.743c0.727,0.592 1.654,0.888 2.784,0.888l1.129,-0c3.604,-0 6.347,0.874 8.229,2.622c1.882,1.748 2.824,4.343 2.824,7.785l-0,3.63Z" style="fill:#a0a0a0;fill-rule:nonzero;"/><path d="M131.844,33.243l6.729,0l0,2.019c1.739,-1.346 3.982,-2.019 6.73,-2.019l2.187,0c4.543,0 7.922,1.066 10.137,3.197c2.215,2.131 3.323,5.552 3.323,10.263l-0,28.602l-7.151,-0l0,-30.284c0,-1.683 -0.49,-3.015 -1.472,-3.996c-0.981,-0.982 -2.313,-1.472 -3.995,-1.472l-3.87,-0c-1.851,-0 -3.225,0.49 -4.122,1.472c-0.897,0.981 -1.346,2.033 -1.346,3.154l-0,31.126l-7.15,-0l-0,-42.062Z" style="fill:#a0a0a0;fill-rule:nonzero;"/><path d="M187.448,75.305c-4.935,-0 -8.552,-1.052 -10.851,-3.155c-2.3,-2.103 -3.449,-5.538 -3.449,-10.305l-0,-15.142c-0,-4.711 1.163,-8.132 3.491,-10.263c2.327,-2.131 5.93,-3.197 10.809,-3.197l9.17,0l-0,6.31l-10.011,-0c-2.075,-0 -3.645,0.476 -4.711,1.43c-1.065,0.953 -1.598,2.299 -1.598,4.038l0,18.507c0,1.738 0.533,3.084 1.598,4.037c1.066,0.954 2.636,1.431 4.711,1.431l10.011,-0l-0,6.309l-9.17,-0Z" style="fill:#a0a0a0;fill-rule:nonzero;"/><path d="M229.762,64.789c-0,3.534 -1.08,6.169 -3.239,7.908c-2.159,1.738 -5.285,2.608 -9.379,2.608l-10.852,-0l-0,-6.309l11.693,-0c1.514,-0 2.664,-0.323 3.449,-0.968c0.785,-0.645 1.178,-1.584 1.178,-2.818l-0,-4.458c-0,-2.524 -1.206,-3.786 -3.618,-3.786l-1.43,-0c-3.925,-0 -6.856,-0.855 -8.791,-2.566c-1.934,-1.71 -2.902,-4.416 -2.902,-8.118l0,-2.439c0,-3.758 1.066,-6.464 3.197,-8.118c2.131,-1.654 5.272,-2.482 9.422,-2.482l9.59,0l-0,6.31l-10.432,-0c-1.402,-0 -2.523,0.322 -3.365,0.967c-0.841,0.645 -1.261,1.584 -1.261,2.818l-0,3.029c-0,1.289 0.378,2.243 1.135,2.86c0.757,0.617 1.725,0.925 2.903,0.925l1.177,0c3.758,0 6.618,0.911 8.581,2.734c1.963,1.823 2.944,4.529 2.944,8.118l-0,3.785Z" style="fill:#a0a0a0;fill-rule:nonzero;"/><g><circle cx="77.913" cy="42.255" r="8.225" style="fill:#a0a0a0;stroke:#a0a0a0;stroke-width:0.09px;"/><circle cx="114.359" cy="42.255" r="8.225" style="fill:#a0a0a0;stroke:#a0a0a0;stroke-width:0.09px;"/><circle cx="77.913" cy="94.305" r="8.225" style="fill:#a0a0a0;stroke:#a0a0a0;stroke-width:0.09px;"/><circle cx="96.096" cy="68.28" r="8.225" style="fill:#a0a0a0;stroke:#a0a0a0;stroke-width:0.09px;"/><path d="M114.359,42.255l-36.446,52.05" style="fill:none;stroke:#a0a0a0;stroke-width:7.54px;"/><path d="M96.136,68.393l-18.303,-26.138" style="fill:none;stroke:#a0a0a0;stroke-width:7.54px;"/></g></svg>