<?xml version="1.0" encoding="UTF-8" standalone="no"?><!DOCTYPE svg PUBLIC "-//W3C//DTD SVG 1.1//EN" "http://www.w3.org/Graphics/SVG/1.1/DTD/svg11.dtd"><svg width="100%" height="100%" viewBox="0 0 2000 1000" version="1.1" xmlns="http://www.w3.org/2000/svg" xmlns:xlink="http://www.w3.org/1999/xlink" xml:space="preserve" xmlns:serif="http://www.serif.com/" style="fill-rule:evenodd;clip-rule:evenodd;stroke-linecap:round;stroke-linejoin:round;stroke-miterlimit:1.5;"><path d="M199.606,627.539c-22.858,0 -40.337,-7.395 -52.438,-22.186c-12.102,-14.79 -18.152,-34.286 -18.152,-58.489l-0,-205.049l-43.699,-0l-0,-50.422l43.699,0l-0,-80.675l57.144,0l0,80.675l77.986,0l0,50.422l-77.986,-0l0,208.41c0,9.861 2.466,16.808 7.396,20.842c4.93,4.033 12.549,6.05 22.858,6.05l47.732,0l0,50.422l-64.54,0Z" style="fill:#a0a0a0;fill-rule:nonzero;"/><path d="M512.222,543.503c0,28.236 -8.628,49.301 -25.883,63.195c-17.256,13.894 -42.243,20.841 -74.961,20.841l-86.725,0l-0,-50.422l93.448,0c12.101,0 21.289,-2.577 27.564,-7.731c6.275,-5.154 9.412,-12.662 9.412,-22.522l0,-35.631c0,-20.169 -9.636,-30.254 -28.908,-30.254l-11.429,0c-31.374,0 -54.792,-6.835 -70.255,-20.505c-15.462,-13.669 -23.194,-35.295 -23.194,-64.876l0,-19.496c0,-30.029 8.516,-51.655 25.547,-64.876c17.032,-13.222 42.131,-19.833 75.297,-19.833l76.641,0l0,50.422l-83.364,-0c-11.205,-0 -20.169,2.577 -26.892,7.731c-6.723,5.155 -10.084,12.662 -10.084,22.522l-0,24.203c-0,10.308 3.025,17.927 9.076,22.858c6.051,4.93 13.782,7.395 23.194,7.395l9.412,-0c30.029,-0 52.887,7.283 68.574,21.849c15.687,14.567 23.53,36.192 23.53,64.876l0,30.254Z" style="fill:#a0a0a0;fill-rule:nonzero;"/><path d="M1098.7,277.029l56.082,-0l-0,16.824c14.487,-11.216 33.181,-16.824 56.081,-16.824l18.227,-0c37.855,-0 66.012,8.88 84.473,26.639c18.46,17.759 27.69,46.267 27.69,85.524l-0,238.347l-59.587,0l0,-252.367c0,-14.021 -4.089,-25.12 -12.268,-33.299c-8.178,-8.178 -19.278,-12.268 -33.298,-12.268l-32.247,0c-15.423,0 -26.873,4.09 -34.35,12.268c-7.478,8.179 -11.216,16.942 -11.216,26.289l-0,259.377l-59.587,0l-0,-350.51Z" style="fill:#a0a0a0;fill-rule:nonzero;"/><path d="M1562.07,627.539c-41.126,0 -71.27,-8.763 -90.431,-26.288c-19.162,-17.526 -28.742,-46.151 -28.742,-85.875l-0,-126.184c-0,-39.257 9.697,-67.765 29.092,-85.524c19.395,-17.759 49.422,-26.639 90.081,-26.639l76.411,-0l0,52.576l-83.421,0c-17.292,0 -30.378,3.973 -39.257,11.918c-8.88,7.945 -13.32,19.161 -13.32,33.649l0,154.224c0,14.488 4.44,25.704 13.32,33.649c8.879,7.945 21.965,11.918 39.257,11.918l83.421,-0l0,52.576l-76.411,0Z" style="fill:#a0a0a0;fill-rule:nonzero;"/><path d="M1914.68,539.912c0,29.442 -8.996,51.408 -26.989,65.895c-17.993,14.488 -44.047,21.732 -78.164,21.732l-90.431,0l-0,-52.576l97.441,-0c12.619,-0 22.199,-2.688 28.742,-8.062c6.543,-5.375 9.815,-13.203 9.815,-23.484l-0,-37.154c-0,-21.031 -10.048,-31.546 -30.144,-31.546l-11.918,-0c-32.714,-0 -57.133,-7.127 -73.256,-21.381c-16.124,-14.255 -24.185,-36.804 -24.185,-67.649l-0,-20.33c-0,-31.312 8.879,-53.861 26.638,-67.648c17.76,-13.787 43.931,-20.68 78.515,-20.68l79.916,-0l-0,52.576l-86.927,0c-11.683,0 -21.03,2.688 -28.04,8.062c-7.011,5.375 -10.516,13.203 -10.516,23.484l0,25.237c0,10.749 3.155,18.694 9.464,23.835c6.309,5.141 14.371,7.711 24.185,7.711l9.815,0c31.312,0 55.146,7.594 71.504,22.783c16.357,15.189 24.535,37.738 24.535,67.649l0,31.546Z" style="fill:#a0a0a0;fill-rule:nonzero;"/><g><circle cx="649.272" cy="352.124" r="68.541" style="fill:#a0a0a0;stroke:#a0a0a0;stroke-width:0.75px;"/><circle cx="952.989" cy="352.124" r="68.541" style="fill:#a0a0a0;stroke:#a0a0a0;stroke-width:0.75px;"/><circle cx="649.272" cy="785.876" r="68.541" style="fill:#a0a0a0;stroke:#a0a0a0;stroke-width:0.75px;"/><circle cx="800.8" cy="569" r="68.541" style="fill:#a0a0a0;stroke:#a0a0a0;stroke-width:0.75px;"/><path d="M952.989,352.124l-303.717,433.752" style="fill:none;stroke:#a0a0a0;stroke-width:62.79px;"/><path d="M801.13,569.944l-152.519,-217.82" style="fill:none;stroke:#a0a0a0;stroke-width:62.79px;"/></g></svg>